<svg xmlns="http://www.w3.org/2000/svg" version="1.1" xmlns:xlink="http://www.w3.org/1999/xlink" xmlns:svgjs="http://svgjs.dev/svgjs" width="1500" height="935" viewBox="0 0 1500 935"><g transform="matrix(1,0,0,1,-0.9090909090909918,0.3785425101214628)"><svg viewBox="0 0 396 247" data-background-color="#000000" preserveAspectRatio="xMidYMid meet" height="935" width="1500" xmlns="http://www.w3.org/2000/svg" xmlns:xlink="http://www.w3.org/1999/xlink"><g id="tight-bounds" transform="matrix(1,0,0,1,0.2400000000000091,-0.09999999999999432)"><svg viewBox="0 0 395.52 247.2" height="247.2" width="395.52"><rect width="395.52" height="247.2" fill="url(#299328fe-4212-43ef-bba3-d357d74286ed)" mask="url(#6b6f6d7f-d3b9-472c-b354-85a15e839e41)" data-fill-palette-color="tertiary"></rect><g><svg></svg></g><g><svg viewBox="0 0 395.52 247.2" height="247.2" width="395.52"><g transform="matrix(1,0,0,1,75.54432,65.93971091678421)"><svg viewBox="0 0 244.43135999999998 115.32057816643159" height="115.32057816643159" width="244.43135999999998"><g><svg viewBox="0 0 244.43135999999998 115.32057816643159" height="115.32057816643159" width="244.43135999999998"><g><svg viewBox="0 0 244.43135999999998 115.32057816643159" height="115.32057816643159" width="244.43135999999998"><g><svg viewBox="0 0 244.43135999999998 115.32057816643159" height="115.32057816643159" width="244.43135999999998"><g id="textblocktransform"><svg viewBox="0 0 244.43135999999998 115.32057816643159" height="115.32057816643159" width="244.43135999999998" id="textblock"><g><svg viewBox="0 0 244.43135999999998 115.32057816643159" height="115.32057816643159" width="244.43135999999998"><g transform="matrix(1,0,0,1,0,0)"><svg width="244.43135999999998" viewBox="1.9 -32.55 70.89999999999999 33.449999999999996" height="115.32057816643159" data-palette-color="url(#e4e0ecb4-721a-42c6-b31c-2198cfd74479)"></svg></g></svg></g></svg></g></svg></g></svg></g></svg></g></svg></g><path d="M236.245 59.94L236.245 11.195 11.435 11.195 11.435 236.005 236.245 236.005 236.245 187.26 225.845 187.26 225.845 225.605 21.834 225.605 21.834 21.595 225.845 21.595 225.845 59.94Z" fill="url(#299328fe-4212-43ef-bba3-d357d74286ed)" stroke="transparent" data-fill-palette-color="tertiary"></path></svg></g><defs></defs><mask id="ab50de7f-743d-48bb-8a53-060f4b08646f"><g id="SvgjsG1084"><svg viewBox="0 0 395.52 247.2" height="247.2" width="395.52"><g><svg></svg></g><g><svg viewBox="0 0 395.52 247.2" height="247.2" width="395.52"><g transform="matrix(1,0,0,1,75.54432,65.93971091678421)"><svg viewBox="0 0 244.43135999999998 115.32057816643159" height="115.32057816643159" width="244.43135999999998"><g><svg viewBox="0 0 244.43135999999998 115.32057816643159" height="115.32057816643159" width="244.43135999999998"><g><svg viewBox="0 0 244.43135999999998 115.32057816643159" height="115.32057816643159" width="244.43135999999998"><g><svg viewBox="0 0 244.43135999999998 115.32057816643159" height="115.32057816643159" width="244.43135999999998"><g id="SvgjsG1083"><svg viewBox="0 0 244.43135999999998 115.32057816643159" height="115.32057816643159" width="244.43135999999998" id="SvgjsSvg1082"><g><svg viewBox="0 0 244.43135999999998 115.32057816643159" height="115.32057816643159" width="244.43135999999998"><g transform="matrix(1,0,0,1,0,0)"><svg width="244.43135999999998" viewBox="1.9 -32.55 70.89999999999999 33.449999999999996" height="115.32057816643159" data-palette-color="url(#e4e0ecb4-721a-42c6-b31c-2198cfd74479)"><path d="M19.25 0.9Q15.9-9.2 10.5-24.45L10.5-24.45 10.15-24.45Q10.15-23.9 9.5-16.1L9.5-16.1Q8.65-4.85 8.65-4.2L8.65-4.2Q8.65-2.65 10.25-2.65L10.25-2.65 12.15-2.7 12.3-2.45 11.8 0.2 10.5 0.15Q6.9 0 6.5 0L6.5 0Q5.35 0 3.85 0.18 2.35 0.35 1.9 0.4L1.9 0.4 2.2-2.35Q3.7-2.5 4.38-3.3 5.05-4.1 5.3-6.1L5.3-6.1Q5.8-10.4 6.6-18.25 7.4-26.1 7.4-27L7.4-27Q7.4-28.35 6.5-28.93 5.6-29.5 3.35-29.65L3.35-29.65 3.15-29.95 3.55-32.2Q7.3-31.95 9.35-31.95L9.35-31.95Q9.7-31.95 12.55-32.1L12.55-32.1 13.65-32.15Q16.4-22.95 20.5-10.95L20.5-10.95 21.15-9.1 21.45-9.1Q22.05-10.85 22.4-11.85L22.4-11.85Q26.2-22.65 29.25-32.05L29.25-32.05Q29.85-32.05 30.3-32L30.3-32Q32.55-31.9 33.7-31.95L33.7-31.95Q34.8-31.95 36.75-32.1 38.7-32.25 39-32.25L39-32.25 39.15-32.05 38.85-29.7Q36.7-29.45 35.85-28.85 35-28.25 35-27L35-27Q35-25.65 35.45-18.93 35.9-12.2 36.3-7.3L36.3-7.3Q36.5-5.35 36.75-4.38 37-3.4 37.45-3.03 37.9-2.65 38.7-2.65L38.7-2.65Q39.15-2.65 39.6-2.7 40.05-2.75 40.1-2.75L40.1-2.75 40.25-2.5 39.8 0.15Q39.55 0.15 37.88 0.08 36.2 0 34.95 0L34.95 0Q33.15 0 31.05 0.2 28.95 0.4 28.85 0.4L28.85 0.4 29.15-2.35Q30.65-2.55 31.33-3.13 32-3.7 32-4.85L32-4.85Q32-5.45 31.7-9.65 31.4-13.85 31.2-16.5L31.2-16.5Q30.6-24.1 30.6-24.45L30.6-24.45 30.25-24.45Q24.75-9.2 21.45 0.5L21.45 0.5 19.25 0.9ZM58.9 0.45L58.7 0.1 58.9-2.35Q61.45-2.55 62.27-2.9 63.1-3.25 63.1-4.2L63.1-4.2Q63.1-5.1 62.75-6.3L62.75-6.3 61.35-11Q60.1-11.05 56.45-11.05L56.45-11.05Q54-11.05 51.3-10.7L51.3-10.7 49.7-6.1Q49.3-4.8 49.3-4.35L49.3-4.35Q49.3-3.35 49.92-2.93 50.55-2.5 52-2.5L52-2.5 54.55-2.5 54.7-2.25 54.4 0.3Q53.75 0.25 51.55 0.13 49.35 0 47.3 0L47.3 0Q45.35 0 43.72 0.05 42.1 0.1 41.55 0.15L41.55 0.15 41.95-2.6Q43.25-2.8 44.05-3.58 44.85-4.35 45.55-6.25L45.55-6.25 54.95-31.7 60.15-32.55 60.65-32.4Q61-31.15 62.2-26.7 63.4-22.25 65.1-16.38 66.8-10.5 68.25-6.05L68.25-6.05Q68.8-4.2 69.72-3.48 70.65-2.75 72.65-2.55L72.65-2.55 72.8-2.3 72.45 0.15Q71.85 0.1 70.17 0.05 68.5 0 66.8 0L66.8 0Q64.25 0 61.9 0.18 59.55 0.35 58.9 0.45L58.9 0.45ZM52.35-13.95L56.35-13.95Q58.35-13.95 60.55-14.15L60.55-14.15 57.1-26.35 56.6-26.35 52.35-13.95Z" opacity="1" transform="matrix(1,0,0,1,0,0)" fill="white" class="wordmark-text-0" id="SvgjsPath1081"></path></svg></g></svg></g></svg></g></svg></g></svg></g></svg></g></svg></g><path d="M236.245 59.94L236.245 11.195 11.435 11.195 11.435 236.005 236.245 236.005 236.245 187.26 225.845 187.26 225.845 225.605 21.834 225.605 21.834 21.595 225.845 21.595 225.845 59.94Z" fill="black" stroke="transparent"></path></svg></g><defs><mask></mask></defs></svg><rect width="395.52" height="247.2" fill="black" stroke="none" visibility="hidden"></rect></g></mask><linearGradient x1="0" x2="1" y1="0.548" y2="0.55" id="e4e0ecb4-721a-42c6-b31c-2198cfd74479"><stop stop-color="#ff6cab" offset="0"></stop><stop stop-color="#7366ff" offset="1"></stop></linearGradient><rect width="395.52" height="247.2" fill="url(#e4e0ecb4-721a-42c6-b31c-2198cfd74479)" mask="url(#ab50de7f-743d-48bb-8a53-060f4b08646f)" data-fill-palette-color="primary"></rect><mask id="6b6f6d7f-d3b9-472c-b354-85a15e839e41"><g id="SvgjsG1107"><svg viewBox="0 0 395.52 247.2" height="247.2" width="395.52"><g><svg></svg></g><g><svg viewBox="0 0 395.52 247.2" height="247.2" width="395.52"><g transform="matrix(1,0,0,1,75.54432,65.93971091678421)"><svg viewBox="0 0 244.43135999999998 115.32057816643159" height="115.32057816643159" width="244.43135999999998"><g><svg viewBox="0 0 244.43135999999998 115.32057816643159" height="115.32057816643159" width="244.43135999999998"><g><svg viewBox="0 0 244.43135999999998 115.32057816643159" height="115.32057816643159" width="244.43135999999998"><g><svg viewBox="0 0 244.43135999999998 115.32057816643159" height="115.32057816643159" width="244.43135999999998"><g id="SvgjsG1106"><svg viewBox="0 0 244.43135999999998 115.32057816643159" height="115.32057816643159" width="244.43135999999998" id="SvgjsSvg1105"><g><svg viewBox="0 0 244.43135999999998 115.32057816643159" height="115.32057816643159" width="244.43135999999998"><g transform="matrix(1,0,0,1,0,0)"><svg width="244.43135999999998" viewBox="1.9 -32.55 70.89999999999999 33.449999999999996" height="115.32057816643159" data-palette-color="url(#e4e0ecb4-721a-42c6-b31c-2198cfd74479)"></svg></g></svg></g></svg></g></svg></g></svg></g></svg></g></svg></g><path d="M236.245 59.94L236.245 11.195 11.435 11.195 11.435 236.005 236.245 236.005 236.245 187.26 225.845 187.26 225.845 225.605 21.834 225.605 21.834 21.595 225.845 21.595 225.845 59.94Z" fill="white" stroke="transparent"></path></svg></g><defs><mask></mask></defs><mask><g id="SvgjsG1104"><svg viewBox="0 0 395.52 247.2" height="247.2" width="395.52"><g><svg></svg></g><g><svg viewBox="0 0 395.52 247.2" height="247.2" width="395.52"><g transform="matrix(1,0,0,1,75.54432,65.93971091678421)"><svg viewBox="0 0 244.43135999999998 115.32057816643159" height="115.32057816643159" width="244.43135999999998"><g><svg viewBox="0 0 244.43135999999998 115.32057816643159" height="115.32057816643159" width="244.43135999999998"><g><svg viewBox="0 0 244.43135999999998 115.32057816643159" height="115.32057816643159" width="244.43135999999998"><g><svg viewBox="0 0 244.43135999999998 115.32057816643159" height="115.32057816643159" width="244.43135999999998"><g id="SvgjsG1103"><svg viewBox="0 0 244.43135999999998 115.32057816643159" height="115.32057816643159" width="244.43135999999998" id="SvgjsSvg1102"><g><svg viewBox="0 0 244.43135999999998 115.32057816643159" height="115.32057816643159" width="244.43135999999998"><g transform="matrix(1,0,0,1,0,0)"><svg width="244.43135999999998" viewBox="1.9 -32.55 70.89999999999999 33.449999999999996" height="115.32057816643159" data-palette-color="url(#e4e0ecb4-721a-42c6-b31c-2198cfd74479)"><path d="M19.25 0.9Q15.9-9.2 10.5-24.45L10.5-24.45 10.15-24.45Q10.15-23.9 9.5-16.1L9.5-16.1Q8.65-4.85 8.65-4.2L8.65-4.2Q8.65-2.65 10.25-2.65L10.25-2.65 12.15-2.7 12.3-2.45 11.8 0.2 10.5 0.15Q6.9 0 6.5 0L6.5 0Q5.35 0 3.85 0.18 2.35 0.35 1.9 0.4L1.9 0.4 2.2-2.35Q3.7-2.5 4.38-3.3 5.05-4.1 5.3-6.1L5.3-6.1Q5.8-10.4 6.6-18.25 7.4-26.1 7.4-27L7.4-27Q7.4-28.35 6.5-28.93 5.6-29.5 3.35-29.65L3.35-29.65 3.15-29.95 3.55-32.2Q7.3-31.95 9.35-31.95L9.35-31.95Q9.7-31.95 12.55-32.1L12.55-32.1 13.65-32.15Q16.4-22.95 20.5-10.95L20.5-10.95 21.15-9.1 21.45-9.1Q22.05-10.85 22.4-11.85L22.4-11.85Q26.2-22.65 29.25-32.05L29.25-32.05Q29.85-32.05 30.3-32L30.3-32Q32.55-31.9 33.7-31.95L33.7-31.95Q34.8-31.95 36.75-32.1 38.7-32.25 39-32.25L39-32.25 39.15-32.05 38.85-29.7Q36.7-29.45 35.85-28.85 35-28.25 35-27L35-27Q35-25.65 35.45-18.93 35.9-12.2 36.3-7.3L36.3-7.3Q36.5-5.35 36.75-4.38 37-3.4 37.45-3.03 37.9-2.65 38.7-2.65L38.7-2.65Q39.15-2.65 39.6-2.7 40.05-2.75 40.1-2.75L40.1-2.75 40.25-2.5 39.8 0.15Q39.55 0.15 37.88 0.08 36.2 0 34.95 0L34.95 0Q33.15 0 31.05 0.2 28.95 0.4 28.85 0.4L28.85 0.4 29.15-2.35Q30.65-2.55 31.33-3.13 32-3.7 32-4.85L32-4.85Q32-5.45 31.7-9.65 31.4-13.85 31.2-16.5L31.2-16.5Q30.6-24.1 30.6-24.45L30.6-24.45 30.25-24.45Q24.75-9.2 21.45 0.5L21.45 0.5 19.25 0.9ZM58.9 0.45L58.7 0.1 58.9-2.35Q61.45-2.55 62.27-2.9 63.1-3.25 63.1-4.2L63.1-4.2Q63.1-5.1 62.75-6.3L62.75-6.3 61.35-11Q60.1-11.05 56.45-11.05L56.45-11.05Q54-11.05 51.3-10.7L51.3-10.7 49.7-6.1Q49.3-4.8 49.3-4.35L49.3-4.35Q49.3-3.35 49.92-2.93 50.55-2.5 52-2.5L52-2.5 54.55-2.5 54.7-2.25 54.4 0.3Q53.75 0.25 51.55 0.13 49.35 0 47.3 0L47.3 0Q45.35 0 43.72 0.05 42.1 0.1 41.55 0.15L41.55 0.15 41.95-2.6Q43.25-2.8 44.05-3.58 44.85-4.35 45.55-6.25L45.55-6.25 54.95-31.7 60.15-32.55 60.65-32.4Q61-31.15 62.2-26.7 63.4-22.25 65.1-16.38 66.8-10.5 68.25-6.05L68.25-6.05Q68.8-4.2 69.72-3.48 70.65-2.75 72.65-2.55L72.65-2.55 72.8-2.3 72.45 0.15Q71.85 0.1 70.17 0.05 68.5 0 66.8 0L66.8 0Q64.25 0 61.9 0.18 59.55 0.35 58.9 0.45L58.9 0.45ZM52.35-13.95L56.35-13.95Q58.35-13.95 60.55-14.15L60.55-14.15 57.1-26.35 56.6-26.35 52.35-13.95Z" opacity="1" transform="matrix(1,0,0,1,0,0)" fill="black" class="wordmark-text-0" id="SvgjsPath1101"></path></svg></g></svg></g></svg></g></svg></g></svg></g></svg></g></svg></g><path d="M236.245 59.94L236.245 11.195 11.435 11.195 11.435 236.005 236.245 236.005 236.245 187.26 225.845 187.26 225.845 225.605 21.834 225.605 21.834 21.595 225.845 21.595 225.845 59.94Z" fill="black" stroke="transparent"></path></svg></g><defs><mask></mask></defs></svg><rect width="395.52" height="247.2" fill="black" stroke="none" visibility="hidden"></rect></g></mask></svg><rect width="395.52" height="247.2" fill="black" stroke="none" visibility="hidden"></rect></g></mask><linearGradient x1="0" x2="1" y1="0.548" y2="0.55" id="299328fe-4212-43ef-bba3-d357d74286ed"><stop stop-color="#ff6cab" offset="0"></stop><stop stop-color="#7366ff" offset="1"></stop></linearGradient></svg><rect width="395.52" height="247.2" fill="none" stroke="none" visibility="hidden"></rect></g></svg></g></svg>